<svg width="186" height="179" viewBox="0 0 233 179" fill="current" xmlns="http://www.w3.org/2000/svg">
<mask id="path-1-inside-1_10_55" fill="white">
<path fill-rule="evenodd" clip-rule="evenodd" d="M159.966 14.802C165.126 12.9887 170.694 12 176.5 12C203.286 12 225 33.0426 225 59C225 64.3983 224.061 69.584 222.332 74.412C229.021 82.7745 233 93.2606 233 104.644C233 125.613 219.498 143.537 200.432 150.751C194.007 166.431 176.749 177.657 156.468 177.657C144.424 177.657 133.446 173.698 125.17 167.199C115.98 174.039 104.691 178.069 92.4895 178.069C72.2709 178.069 54.5602 167.003 44.7487 150.426C41.818 151.232 38.7383 151.661 35.5614 151.661C15.9214 151.661 0 135.252 0 115.01C0 105.008 3.88792 95.941 10.1912 89.3278C8.76745 84.6471 8 79.667 8 74.5022C8 47.1629 29.5042 25 56.0309 25C62.0658 25 67.8408 26.1471 73.1617 28.2413C83.2268 11.3021 101.35 0 122.035 0C136.583 0 149.864 5.59102 159.966 14.802Z"/>
</mask>
<path d="M159.966 14.802L153.902 21.4524L157.876 25.0759L162.949 23.293L159.966 14.802ZM222.332 74.412L213.859 71.3783L212.165 76.1093L215.304 80.0335L222.332 74.412ZM200.432 150.751L197.247 142.334L193.587 143.718L192.104 147.339L200.432 150.751ZM125.17 167.199L130.729 160.121L125.317 155.871L119.797 159.979L125.17 167.199ZM44.7487 150.426L52.4937 145.842L48.9922 139.926L42.3635 141.748L44.7487 150.426ZM10.1912 89.3278L16.706 95.5373L20.3305 91.7347L18.8017 86.7087L10.1912 89.3278ZM73.1617 28.2413L69.8656 36.616L76.9886 39.4194L80.8988 32.8387L73.1617 28.2413ZM162.949 23.293C167.161 21.813 171.721 21 176.5 21V3C169.667 3 163.09 4.16447 156.982 6.31093L162.949 23.293ZM176.5 21C198.584 21 216 38.2776 216 59H234C234 27.8076 207.988 3 176.5 3V21ZM216 59C216 63.3467 215.245 67.5071 213.859 71.3783L230.806 77.4457C232.877 71.6608 234 65.4498 234 59H216ZM215.304 80.0335C220.78 86.8805 224 95.4043 224 104.644H242C242 91.1169 237.261 78.6685 229.361 68.7905L215.304 80.0335ZM224 104.644C224 121.596 213.078 136.343 197.247 142.334L203.617 159.169C225.918 150.731 242 129.631 242 104.644H224ZM192.104 147.339C187.245 159.197 173.598 168.657 156.468 168.657V186.657C179.899 186.657 200.769 173.665 208.76 154.164L192.104 147.339ZM156.468 168.657C146.386 168.657 137.378 165.342 130.729 160.121L119.611 174.277C129.514 182.054 142.462 186.657 156.468 186.657V168.657ZM119.797 159.979C112.09 165.715 102.67 169.069 92.4895 169.069V187.069C106.713 187.069 119.87 182.362 130.543 174.419L119.797 159.979ZM92.4895 169.069C75.6681 169.069 60.7986 159.873 52.4937 145.842L37.0037 155.01C48.3218 174.132 68.8737 187.069 92.4895 187.069V169.069ZM42.3635 141.748C40.2013 142.342 37.9236 142.661 35.5614 142.661V160.661C39.5531 160.661 43.4347 160.121 47.1339 159.104L42.3635 141.748ZM35.5614 142.661C21.146 142.661 9 130.539 9 115.01H-9C-9 139.965 10.6968 160.661 35.5614 160.661V142.661ZM9 115.01C9 107.375 11.9599 100.517 16.706 95.5373L3.67646 83.1183C-4.1841 91.3654 -9 102.641 -9 115.01H9ZM18.8017 86.7087C17.6339 82.8695 17 78.7717 17 74.5022H-1C-1 80.5623 -0.0989975 86.4246 1.58075 91.9469L18.8017 86.7087ZM17 74.5022C17 51.8756 34.7288 34 56.0309 34V16C24.2796 16 -1 42.4503 -1 74.5022H17ZM56.0309 34C60.9156 34 65.5738 34.9268 69.8656 36.616L76.4577 19.8665C70.1077 17.3673 63.216 16 56.0309 16V34ZM80.8988 32.8387C89.4557 18.438 104.741 9 122.035 9V-9C97.9588 -9 76.998 4.16625 65.4245 23.6439L80.8988 32.8387ZM122.035 9C134.221 9 145.368 13.6714 153.902 21.4524L166.03 8.15157C154.36 -2.4894 138.945 -9 122.035 -9V9Z" fill="#383837" mask="url(#path-1-inside-1_10_55)"/>
</svg>
