<svg width="178" height="189" viewBox="0 0 178 189" fill="current" xmlns="http://www.w3.org/2000/svg">
<mask id="path-1-inside-1_8_121" fill="white">
<path fill-rule="evenodd" clip-rule="evenodd" d="M176.691 144.875C179.419 140.722 174.426 136.064 169.819 137.925C160.134 141.837 149.551 143.991 138.465 143.991C92.2055 143.991 54.7045 106.49 54.7045 60.23C54.7045 40.8104 61.3133 22.9343 72.4044 8.72804C75.4569 4.81826 72.3576 -1.24658 67.6209 0.225699C28.4459 12.4022 0 48.9394 0 92.1204C0 145.258 43.0769 188.335 96.215 188.335C129.874 188.335 159.497 171.051 176.691 144.875Z"/>
</mask>
<path d="M72.4044 8.72804L64.5222 2.57417L72.4044 8.72804ZM166.073 128.653C157.559 132.092 148.246 133.991 138.465 133.991V153.991C150.856 153.991 162.71 151.582 173.564 147.197L166.073 128.653ZM138.465 133.991C97.7283 133.991 64.7045 100.967 64.7045 60.23H44.7045C44.7045 112.013 86.6827 153.991 138.465 153.991V133.991ZM64.7045 60.23C64.7045 43.1184 70.5191 27.3928 80.2867 14.8819L64.5222 2.57417C52.1074 18.4757 44.7045 38.5024 44.7045 60.23H64.7045ZM10 92.1204C10 53.4424 35.477 20.6887 70.5891 9.77505L64.6528 -9.32365C21.4148 4.11574 -10 44.4363 -10 92.1204H10ZM96.215 178.335C48.5998 178.335 10 139.736 10 92.1204H-10C-10 150.781 37.5541 198.335 96.215 198.335V178.335ZM168.333 139.385C152.909 162.866 126.366 178.335 96.215 178.335V198.335C133.383 198.335 166.084 179.237 185.049 150.365L168.333 139.385ZM80.2867 14.8819C84.4942 9.49267 84.4167 2.66709 81.7285 -2.3006C78.8797 -7.5651 72.3586 -11.7188 64.6528 -9.32365L70.5891 9.77505C69.4815 10.1193 67.9973 10.1101 66.5797 9.45101C65.2857 8.84935 64.528 7.93716 64.1387 7.21779C63.4212 5.8919 63.3671 4.05362 64.5222 2.57417L80.2867 14.8819ZM173.564 147.197C171.827 147.899 170.084 147.341 169.013 146.293C168.43 145.724 167.761 144.746 167.538 143.334C167.294 141.787 167.695 140.355 168.333 139.385L185.049 150.365C189.489 143.606 187.278 136.183 182.998 131.996C178.961 128.047 172.417 126.091 166.073 128.653L173.564 147.197Z" fill="#383837" mask="url(#path-1-inside-1_8_121)"/>
</svg>
