<svg width="85" height="172" viewBox="0 0 85 172" fill="current" stroke="current" xmlns="http://www.w3.org/2000/svg">
<path d="M42.6152 4.69338C42.6152 4.6935 42.6117 4.69584 42.6047 4.70002C42.6117 4.69535 42.6152 4.69326 42.6152 4.69338ZM8.85657 73.238C11.1367 66.9318 14.2181 59.6008 17.6539 51.9868C16.7449 54.5611 16.1232 56.6966 15.8017 58.4084C15.5692 59.6464 15.3838 61.1918 15.6789 62.681C15.8358 63.473 16.1867 64.5523 17.0224 65.5448C17.9356 66.6292 19.1658 67.2945 20.4742 67.5169C22.6595 67.8883 24.4795 66.9428 25.2538 66.5047C26.2641 65.9331 27.257 65.1681 28.1672 64.3878C30.0103 62.8077 32.1347 60.6227 34.3385 58.2028C38.1911 53.9724 42.6756 48.5883 46.9303 43.4802C47.565 42.7181 48.1946 41.9622 48.8162 41.2172C53.7232 35.3363 58.0125 30.2844 60.7505 27.6813C67.62 21.1502 73.1322 20.5335 75.7777 21.6039C77.9686 22.4903 81.0031 25.8723 79.6949 35.0653C79.492 36.4908 78.7011 39.0538 77.1254 42.8235C75.595 46.4847 73.4676 50.9535 70.8365 56.0601C65.5777 66.2664 58.4162 78.8092 50.2774 92.159C47.1407 97.3038 43.8652 102.558 40.5048 107.834C45.3073 97.9551 49.6893 88.5336 53.0922 80.5189C56.8376 71.6976 59.6793 63.9519 60.2778 59.2022C60.5988 56.6544 60.7614 54.3313 60.5746 52.4297C60.4294 50.9518 59.8819 47.5358 56.6239 46.0015C55.0257 45.2489 53.4592 45.3202 52.3214 45.5671C51.2121 45.8077 50.2232 46.2713 49.4248 46.72C47.8355 47.6131 46.1145 48.9611 44.359 50.4652C41.7853 52.6704 38.5551 55.7277 34.7356 59.343C33.3126 60.6898 31.8078 62.1141 30.2247 63.6007C24.3105 69.1539 17.0848 75.7877 8.36123 83.1012C7.13924 84.1257 6.11667 84.9034 5.27615 85.4882C5.35723 85.021 5.45728 84.5142 5.57781 83.9671C6.21178 81.0896 7.331 77.4573 8.85657 73.238ZM20.2117 57.8592C20.2129 57.8558 20.2511 57.8344 20.3224 57.8052C20.2461 57.8481 20.2104 57.8626 20.2117 57.8592Z" stroke="current" stroke-width="10"/>
</svg>
